<svg width="96" height="96" viewBox="0 0 96 96" fill="none" xmlns="http://www.w3.org/2000/svg">
<path d="M74.6829 96H22L51.0468 41.5031H22V27.867H74.6829L45.731 82.3639H74.6829V96Z" fill="#2D3E50"/>
<path d="M58.1303 12.0207C58.6049 10.9754 58.8423 9.85094 58.8423 8.64729C58.8423 7.47531 58.6049 6.36669 58.1303 5.32141C57.6873 4.24446 57.0703 3.32588 56.2793 2.56568C55.4883 1.7738 54.5548 1.15614 53.479 0.712689C52.4349 0.237563 51.3116 0 50.1092 0C48.9068 0 47.7678 0.237563 46.692 0.712689C45.6478 1.15614 44.7302 1.7738 43.9392 2.56568C43.1798 3.32588 42.5628 4.24446 42.0881 5.32141C41.6452 6.36669 41.4237 7.47531 41.4237 8.64729C41.4237 9.85094 41.6452 10.9754 42.0881 12.0207C42.5628 13.066 43.1798 13.9845 43.9392 14.7764C44.7302 15.5366 45.6478 16.1543 46.692 16.6294C47.7678 17.0729 48.9068 17.2946 50.1092 17.2946C51.3116 17.2946 52.4349 17.0729 53.479 16.6294C54.5548 16.1543 55.4883 15.5366 56.2793 14.7764C57.0703 13.9845 57.6873 13.066 58.1303 12.0207Z" fill="#FF7A59"/>
</svg>
